<?xml version="1.0" encoding="UTF-8"?>
<svg version="1.1" viewBox="0 0 2048 1354" width="1280" height="1280" xmlns="http://www.w3.org/2000/svg">
<path transform="translate(1016,156)" d="m0 0h27l39 2 33 3 33 5 30 6 33 8 29 8 38 13 29 12 29 14 28 14 23 13 33 22 16 11 21 16 13 10 14 12 11 9 9 9 8 7 26 26 9 11 10 11 9 11 11 13 12 16 14 19 12 18 13 21 13 24 12 22 7 15 5 14-1 3-2 2-7 25-5 19v5l10 5 7 6 4 7 1 4v10l-4 20-8 38-7 36-5 24-8 42v9l8 4 7 1 3-1 2-4 9-15 16-29 9-15 9-10h1v10l-8 45-3 15v8l9 3 16 2 6 4 2 3v11l-10 40-10 29-2 6 9-13 10-15 10-17 10-16 26-42 8-11 7-6 7-3h14l8 3 7 7 4 7 1 4v10l-3 10-8 14-9 14-17 28-14 23-13 21-15 25-9 14-7 9-5 4-12 4h-7l-10-3-11-9v7l-3 12-5 10-10 16-9 16-11 19-3 5-1 5 2 12 3-3 11-22 13-23 13-25 5-10 4-3-1 6-11 20-14 24-12 22-9 19-3 11v3h9l6-4 26-32 14-17 11-14 22-26 8-11 11-12 13-8 12-4h30l47 5 31 3 24 4-1 2-83 12-20 4-12 6-14 12-22 22-9 11-12 14-9 11-13 15-11 13-3 4 1 5 8 13 6 16v29l-4 11-1 2 9 2 17 4 16 8 9 7 9 12 8 16 4 15-1 9-4 8-2 1-638 1-32 1-63 1h-764l-1-4 4-7 9-10 10-8 14-7 7-2 16-1-1-7-4-18v-18l4-16-1-7-8-16-12-22-18-36-10-19-8-16-9-16-10-14-8-9-14-7-49-14-26-7-4-2 1-3h36l48 1 26 1 12 3 12 7 9 11 12 19 14 27 18 36 9 20 9 19 4 1 4-3v-8l-4-16-12-42-16-49-11-32 1-4 4 5 6 14 9 32 9 28 15 55 3 12 2 2 4-2v-9l-5-31-6-43-4-22-6-16-9-10-6-5-3-6-1-6 7-14 1-9-1-4-6 10-7 6-8 4-4 1h-8l-11-4-8-7-8-16-8-21-11-29-17-43-16-42-4-13v-13l3-8 8-9 7-4 5-1h8l12 6 8 9 7 16 11 30 11 28 15 35 2 1 1-26 2-31 4-16 1-12 1-46 3-36 5-26 8-29 17-58 10-28 14-32 16-32 13-23 12-20 22-33 14-19 13-16 12-14 7-8 12-14 12-12 7-8 4-4h2v-2l8-7 16-16 8-5h5l1-4 10-11 11-9 16-12 14-10 34-22 25-14 22-12 17-9 31-14 34-13 27-9 29-8 38-9 39-7 24-3 37-3zm-270 147-14 3-10 4-9 7-7 8-5 12-1 4v19l4 10 6 7 8 4 8 2h131l8-3 4-5v-7l-4-6-6-4-11-4-6-17-5-7-11-7-9-2h-11l-5 1h-7l-11-9-9-5-12-4-6-1zm645 17-16 5-10 7-10 9-7 8-6 8-8-1-14-3h-27l-14 4-10 5-10 9-6 10-6 18-2 8-17 4-10 5-5 5-4 8-1 3v8l3 6 6 5 9 3 17 1h237l32-1 9-2 6-4 6-8 1-3v-14l-4-10-5-6-10-5-4-1h-19l-15 1-1-1-2-25-4-14-6-11-7-9-8-7-13-8-13-5-10-2zm310 616 1 2z" fill="#FBFBFC"/>
<path transform="translate(1647,623)" d="m0 0 1 2 9 3 9 7 5 8 1 4v10l-4 20-8 38-7 36-5 24-8 42v9l8 4 7 1 3-1 2-4 9-15 16-29 9-15 9-10h1v10l-8 45-3 15v8l9 3 16 2 6 4 2 3v11l-10 40-10 29-2 6 9-13 10-15 10-17 10-16 26-42 8-11 7-6 7-3h14l8 3 7 7 4 7 1 4v10l-3 10-8 14-9 14-17 28-14 23-13 21-15 25-9 14-7 9-5 4-12 4h-7l-10-3-11-9v7l-3 12-5 10-10 16-9 16-11 19-3 5-1 5 2 12 3-3 11-22 13-23 13-25 5-10 4-3-1 6-11 20-14 24-12 22-9 19-3 11v3h9l6-4 26-32 14-17 11-14 22-26 8-11 11-12 13-8 12-4h30l47 5 31 3 24 4-1 2-83 12-20 4-12 6-14 12-22 22-9 11-12 14-9 11-13 15-11 13-3 4 1 5 8 13 6 16v29l-4 11-1 2 9 2 17 4 16 8 9 7 9 12 8 16 4 15-1 9-4 8-2 1-638 1-32 1-63 1h-764l-1-4 4-7 9-10 10-8 14-7 7-2 16-1-1-7-4-18v-18l4-16-1-7-8-16-12-22-18-36-10-19-8-16-9-16-10-14-8-9-14-7-49-14-26-7-4-2 1-3h36l48 1 26 1 12 3 12 7 9 11 12 19 14 27 18 36 9 20 9 19 4 1 4-3v-8l-4-16-12-42-16-49-11-32 1-4 4 5 6 14 9 32 9 28 15 55 3 12 2 2 4-2v-9l-4-25v-6l5-4v-16l2-10 2-2 5-2h5l4 2 5-6 7 2 6-5 3 7v38h-1l-1-6-3 1-3 7-1 11 2 3 2 6 4-2 1 10 3 1 3-3 5-8 3-3 11-6 14-12 3-6 3-2h3v-2l2-1h13l6-4h13l13 5 6 2 10-8 16-8 5-2 6-1h14l14 3 9 4 10 6 7 7 8 13 4 10 1 4v20l-1 6 18-4h21l16 4 15 7 10 8 8 8 7 11 6 16 2 11v16l8-1 6-1 19-1 14 3 10 4 14 6 2-7 9-13 12-13 10-9 11-7 15-6 13-3h26l12 3 13 5 15 10 14 12 6 8 7 12 8 20 4 13 3 7 3-9 12-14 12-11 12-8 16-6 17-4 7-1h33l19 4 18 6 14 7 15 8h3l5-5 6-3 2-5 5-5h2v-2l10-6 12-4 15-2h10l15 2-7-20-3-12v-20l3-11 7-11 8-8 14-9 9-3 5-1h17l11 3 5-18 6-20 8-16 8-10 11-12 13-9 13-6 18-5 19-3h16l20 3 19 5 20 8 19 11 11 9 4-2 7-9 6-3h4v-2l7-3 9-2 15-1 1-3h10l4-1 2-23 1-20 7-62 5-30 3-21 2-13v-5l-3-2v-2l-5-2-5-4-6-10-2-8 1-12 7-34 5-25 9-43 10-48 5-21 4-7 11-8 5-2 9-1zm54 313 1 2z" fill="#B8D9CE"/>
<path transform="translate(256,774)" d="m0 0h8l12 6 8 9 7 16 11 30 11 28 15 35 2 1v-7h3l2-2 3 3 5 4 6-3 1 5 2-9 5-3 8-3 3-2h3l3-16 6-31 1-5 1-10 2-5 3-1 3 6 2 7 3 8 15 45h95l4-1 7 1 3 1h15l8 1h11l5 1h8l7 1h7l8 1 14 1 9 1 70 8 49 8 48 9 37 8 57 14 33 9 49 14 69 22 45 16 49 18 39 15 29 12 37 15 56 25 15 7 10 5h10l2-8 1 4-8 28-3 1-9-3h-17l-12 3-12 7-12 11-6 10-3 11v20l4 15 6 17-4 1-12-2h-10l-19 3-9 4-7 4h-2v2l-7 6-2 5-9 5-2 3-5-1-19-10-11-5-18-6-16-3h-33l-20 4-15 5-10 5-10 8-10 9-10 12-3 10-3-2-10-30-4-9-8-14-8-9-14-11-15-9-15-5-6-1h-26l-16 4-14 6-11 8-13 12-10 12-6 10-2 5-5-1-10-5-13-4-10-2-22 1-9 2-3-1v-16l-3-14-5-13-7-11-10-10-8-6-20-8-10-2h-21l-13 3h-5v-26l-4-12-7-12-8-9-13-8-13-4-7-1h-14l-9 2-16 8-12 9-6-2-13-5h-13l-6 4h-15v2l-6 2-2 6-3 3h-2l-1 3-5 3-4 4-12 7-4 5-4 7-4 1-2-2-1-9-3 1-3-6-2 2 1-16 4-8h4v-33l-2-5-7 5v-2h-6l-4 6-7-2-4 1-5 2-2 10v16l-5 4h-2l-6-43-4-22-6-16-9-10-6-5-3-6-1-6 7-14 1-9-1-4-6 10-7 6-8 4-4 1h-8l-11-4-8-7-8-16-8-21-11-29-17-43-16-42-4-13v-13l3-8 8-9 7-4z" fill="#E8F0E0"/>
<path transform="translate(1016,156)" d="m0 0h27l22 1v1l-15 1 1 1 42 3 26 4 16 2 13 3 9 2 25 6 32 8 26 7 21 7 17 6 8 4 10 3 4 3 23 11 16 8 25 13 13 8 7 4 11 7 10 7 16 12 10 8 12 8 24 18 10 9 10 10 9 11v5l4 7-3 2-3 6 4 3-1 3-4-1v-2l-5 2-4 1-2-7-3-6-10-13-4-7-4-6-5-4v-2l-8-1-6-4-6-2-11-4-12-1h-22l-16 5-10 7-10 9-6 7-6 8-5 1-18-4h-27l-14 4-10 5-10 9-6 10h-2l-2 6-8 12-6 6h-2l-1 3-10 2-2 1-2-1-1 2-6 4-4 2-2 4-4 9-2 9-2 7-14 7-2 3-5 2-7 1h-10l-7-1-17-2-3-1-43-4-19-6-7-2-11-6-11-4h-19l-11 4-14 3-11 3h-17l-16-2-3-1v-2l-7 1h-11l-7 1-7-1h-5l-5 4-7 2h-6l-2-1v-2l-3 1-4-1v-2l-4-1v-2h-2v-7l2-5-1-10-8-2v-2l-6-1-7-7-5-1-1-1-7-1-1-2-9-1-4-4 5-3 16-2 9-3 8-6 2-4v-7l-5-5-4-6-10-4-1-5-8-2-4-11-4-5v-2l-14-7-6-1h-11l-5 1h-7l-11-9-9-5-12-4-6-1h-10l-14 3-10 4-9 7-7 9-4 10-3 11-1 7h-2l2 12 1 5 5 12 5 6 2 1v2l5 1 1 5h2l1 6 4 2 3 3-1 3-7 1-2 9-5 1v2h-2l-1 2-3 4-4 4h-2l-1 4h-2l-3 12-8 1-2 3h-2v2h-5l-1 4-7 1-1-3h-3v-12h2l-1-4h-7l-5 1-1-4h-7l-2 1v14l-1 22 1 10 3 12 7 8 6 9 2-1 1 9-1 2 4 2 2 4 8 1 2 6h-2l-2 6-1-2-6 1h-8l-2 6-2-1-1-3-2 3-3 4v-2h-2l-1 4-3 1-5-2-1-2v-6l3-3h4l3-3-10-1-7-1h-15l-10-1-60-1-28-1-2-2v-21l4-3 7-1 7 2h69l21-2 15-1 1-4-5-1-4-3v-7l3-4 1-1-3-5-2-3 1-6 2-3h2l-1-2-2-1 2-4h-2v-4-8l2-9 2-7-2-2-31-1h-76l-11-3-2-3v-12l8-7 15-10 5-4-6 4-8 3-2-1-8 2-8 9 2 6v5h-1l1 8 3 4 9 3-2 2-9-1-5-7v-3l-6-2-3-2-1-4-2-2 3-5 8-8 1-2h2l2-6 5-8h2v-2h2l2-4 6-5 4-5v3l-5 7-5 5-2 4 5-5 9-10 1-2h2l2-4 8-8 4-6 12-14 8-12 3-5h5l1-4 10-11 11-9 16-12 14-10 34-22 25-14 22-12 17-9 31-14 34-13 27-9 29-8 38-9 39-7 24-3 37-3z" fill="#DFEBF7"/>
<path transform="translate(329,992)" d="m0 0 5 5 6 14 9 32 9 28 15 55 3 12 2 2 4-2v-9l-4-25v-6l5-4v-16l2-10 2-2 5-2h5l4 2 5-6 7 2 6-5 3 7v38h-1l-1-6-3 1-3 7-1 11 2 3 2 6 4-2 1 10 3 1 3-3 5-8 3-3 11-6 14-12 3-6 3-2h3v-2l2-1h13l6-4h13l13 5 6 2 10-8 16-8 5-2 6-1h14l14 3 9 4 10 6 7 7 8 13 4 10 1 4v20l-1 6 18-4h21l16 4 4 4v2l7 2 5 5 3 2v2l4 2 4 4 2 3 2 6v9l-2 9-10 13-10 6-11 2-10-1-9-2h-4l-8 10-12 9-12 5-11 2-16 1-17-6-10-7-7-8-3-4-4 1-9 11-7 5-10 5h-7l-5 4-19 3-9 3-14 2h-11l-13-1-5-3-9-3h-5l-1 5h-2l-2 5-4 5-5 2-2 5-9 3-16 1-11 3-2 1-3-1-1 2-7 2v3l5 2v2l3 2-36 1h-63l-1-4 4-7 9-10 10-8 14-7 7-2 16-1-1-7-4-18v-18l4-16-1-7-8-16-12-22-18-36-10-19-8-16-9-16-10-14-8-9-14-7-49-14-26-7-4-2 1-3h36l48 1 26 1 12 3 12 7 9 11 12 19 14 27 18 36 9 20 9 19 4 1 4-3v-8l-4-16-12-42-16-49-11-32z" fill="#B8D9CE"/>
<path transform="translate(1647,623)" d="m0 0 1 2 9 3 9 7 5 8 1 4v10l-4 20-8 38-7 36-5 24-8 42v9l8 4 7 1 3-1 2-4 9-15 16-29 9-15 9-10h1v10l-8 45-3 15v8l9 3 16 2 6 4 2 3v11l-10 40-10 29-2 6 9-13 10-15 10-17 10-16 26-42 8-11 7-6 7-3h14l8 3 7 7 4 7 1 4v10l-3 10-8 14-9 14-17 28-14 23-13 21-15 25-9 14-7 9-5 4-12 4h-7l-10-3-11-9v7l-3 12-5 10-10 16-9 16-11 19-3 5-2 5h-2l-2-10-6-12-2-5 1-8 14-46 2-11-2-5h-2l-1-3h2v-6l-10 4h-20l-6 2-5 4-1 2h-3l-1 5h-2l-2 6-5 12-3 6h-2v-12l1-13v-8l-1 8h-1v-11l7-62 5-30 3-21 2-13v-5l-3-2v-2l-5-2-5-4-6-10-2-8 1-12 7-34 5-25 9-43 10-48 5-21 4-7 11-8 5-2 9-1zm54 313 1 2z" fill="#E8F0E1"/>
<path transform="translate(681,1149)" d="m0 0 7 1 8 4 10 8 8 8 7 11 6 16 2 11v16l8-1 6-1 19-1 14 3 10 4 14 6 2-7 9-13 12-13 10-9 11-7 15-6 13-3h26l12 3 13 5 15 10 14 12 6 8 7 12 8 20 4 13 3 10 3 4 10 3 8 2v2l2 1h-2v2l-3 2-261 1v1h-352l-12-2-2-3-4-2-1-4 9-2 7-2 10-3 16-1 9-2 2-5 5-3 6-9h2l1-5 5-1 10 4 4 2 13 1h11l14-2 9-3 21-3 1-3 5-1 6-1 13-7 9-10 3-4 4 1 8 10 9 7 15 6 9 1 14-1 14-4 9-5 10-8 7-9 9 1 11 2 11-1 10-5 5-5 7-9 2-9v-9l-4-9-1-3-6-3v-2l-4-2-4-3v-2l-7-2-1-2z" fill="#A0CDC3"/>
<path transform="translate(1693,1131)" d="m0 0 5 1 4 2 7 12 5 14v29l-4 11-1 2 9 2 17 4 16 8 9 7 9 12 8 16 4 15-1 9-4 8-2 1h-609v-1l24-1h-7-2-9-3l-2-1 2-5 16-2 5-2 3-2 12-2 16-1 8-1 7-1 20-4 5-3 11-2 7-2 11 1 1-4 6-2 8-2 5-2h12l6-3h30l21-1h19l8-3 3-2h12l5 3 7 4h11l4 1 16-2 5-3 10-2 5-4 5-2h13l17 2h8l26-6 12-4 8-6 7-5 7-8 6-8 9 1 16 4h15l19-5 9-3 10-7 8-8 6-9 5-12z" fill="#A0CCC2"/>
<path transform="translate(649,698)" d="m0 0h2l6 87v10l-15 11-15 10-19 10-49 19-26 11-13 8-11 9h-2v-11l5-74 2-22 1-3 14-9 14-7 31-12 30-11 21-10 16-10z" fill="#E2A379"/>
<path transform="translate(582,320)" d="m0 0h1l1 10 1 38 2 5 19 12 4 4 24 15 7 3 8 5 5 2 2 3 1 5v8l-6 7-5 4-2 1v14l-1 22 1 10 3 12 7 8 6 9 2-1 1 9-1 2 4 2 2 4 8 1 2 6h-2l-2 6-1-2-6 1h-8l-2 6-2-1-1-3-2 3-3 4v-2h-2l-1 4-3 1-5-2-1-2v-6l3-3h4l3-3-10-1-7-1h-15l-10-1-60-1-28-1-2-2v-21l4-3 7-1 7 2h69l21-2 15-1 1-4-5-1-4-3v-7l3-4 1-1-3-5-2-3 1-6 2-3h2l-1-2-2-1 2-4h-2v-4-8l2-9 2-7-2-2-31-1h-76l-11-3-2-3v-12l8-7 15-10 5-4-6 4-8 3-2-1-8 2-8 9 2 6v5h-1l1 8 3 4 9 3-2 2-9-1-5-7v-3l-6-2-3-2-1-4-2-2 3-5 8-8 1-2h2l2-6 5-8h2v-2h2l2-4 6-5 4-5v3l-5 7-5 5-2 4 5-5 9-10 1-2h2l2-4 8-8 4-6 12-14 8-12 3-5h5l1-4z" fill="#EDF7FA"/>
<path transform="translate(646,440)" d="m0 0 2 1 2 5 1 13 1 11-3 9h-2v10l5 2 12 1 2-4 2-6 6 1 11-6 12-8 6-1 7-1 12-3 9 2 58 1h8l1-1 13-2 1-3 2-1 2-5 4 2 10-2 2-3h8l3 2 6-1 4 3 5 1v2l5 1 5 2 12 1 8 1 7 1 5 1 12-2h8l2 1h15l5-3 10-1 10 1 24-4 14-1 17-4 13-2h21l1 5 5 5 17 3 16 1 8 2h16l11 3 5 2h6l12 7 7 3 2 1 6-4 3-4 3-1 2-2h1l1-3 5-4 9-1 5-1 2-5 7-5 1-7 2 4 1 10-6 9-2 6-8 6-8 4-5 5-6 5-13-1-3-2h-13l-31-5-27-6-15-3-15-5-4-3h-12l-18 4-52 4-27 2-14 2-13 2-3 2-18 3-3 1v2h-23l-5 1h-9l-7 1-5-1 1 3-13-1-16 2-24 5-6 2-22 2-8 1-20-1-13-3-12-3-6-2-5-1h-6l-4 2-13 1-7 1-3 1-5-2-7 2-5-4-3-10-1-17 1-22v-7z" fill="#DFEBF8"/>
<path transform="translate(1647,623)" d="m0 0 1 2 9 3 9 7 5 8 1 4v10l-4 20-8 38-7 36-5 24-8 42-2 12-6 12-9 8-8 3h-13l-10-5-5-4-6-10-2-8 1-12 7-34 5-25 9-43 10-48 5-21 4-7 11-8 5-2 9-1z" fill="#D09070"/>
<path transform="translate(1791,810)" d="m0 0h14l8 3 7 7 4 7 1 4v10l-3 10-8 14-9 14-17 28-14 23-13 21-15 25-9 14-7 9-5 4-12 4h-7l-10-3-9-8-5-13v-8l4-11 7-11 10-16 3-7 13-19 8-13 13-21 14-23 12-19 7-11 9-10z" fill="#D09070"/>
<path transform="translate(256,774)" d="m0 0h8l12 6 8 9 7 16 11 30 11 28 12 28 7 19 13 33 2 7v17l-7 9-10 6-6 2h-8l-11-4-8-7-8-16-8-21-11-29-17-43-16-42-4-13v-13l3-8 8-9 7-4z" fill="#D09070"/>
<path transform="translate(1522,781)" d="m0 0h3l3 10 8 36 3 14 11 52 8 48 6 40 5 43 1 1h10v2l-4 2h-10l-3 3-13 1-11 3-5 1v2l-10 4-3 3-1-8-4-26-4-36-1-11-1-30v-44l3-41 2-17v-9h2l-1-10 4-25z" fill="#E9F1E1"/>
<path transform="translate(578,562)" d="m0 0h61l2 6 3 34v10l-10 7-22 10-69 23-16 7-4-1v-14l5-72 1-8 1-1z" fill="#E3A379"/>
<path transform="translate(872,1176)" d="m0 0h26l12 3 13 5 15 10 14 12 5 6v2l-2 1-4 11-7 11-7 7-11 1h-7l-9 1-30-3-7 1-6 2-14 1-18 1-6 2-11 1-18-14v-2l-2-1h2l2-7 9-13 12-13 10-9 11-7 15-6z" fill="#B8D9CE"/>
<path transform="translate(1776,988)" d="m0 0h30l47 5 31 3 24 4-1 2-83 12-20 4-12 6-14 12-22 22-9 11-12 14-9 11-13 15-6 7-1-3 1-2h3l-1-5-1 2-3 1-2-2v-4l-6 1-9-2-8 1h-7l-7 4-2-1 8-10 13-16 14-17 11-14 22-26 8-11 11-12 13-8z" fill="#E9F1E1"/>
<path transform="translate(1691,834)" d="m0 0 6 3 21 3 6 4 2 3v11l-10 40-10 29-3 8 1 2-12 19-6 10-3 9v8l4 12h-2v7l-3 12-5 10-10 16-9 16-10 17-6-2-3-3-3-1-4-8v-7l9-25 3-12 4-11 3-12 3-9 7-24 5-17 17-68zm10 102 1 2z" fill="#FBFBFC"/>
<path transform="translate(159 1e3)" d="m0 0h36l48 1 26 1 12 3 12 7 9 11 12 19 14 27 8 17h-2v4l3 3-8 5-1 2h-2l-2 5-4 4-7 3 1 9-1 7 2 7v2h2l1 7-4-1-18-36-10-19-8-16-9-16-10-14-8-9-14-7-49-14-26-7-4-2z" fill="#E9F1E1"/>
<path transform="translate(1638,826)" d="m0 0 10 4 8 1-3 9-9 19-8 16-9 21-9 24-4 10-9 25-8 25-7 24-3 4v-14l2-34 5-37 2-5 2-14 6-45 2-6h11l3-1 1-3 8-6 5-7z" fill="#FBFBFC"/>
<path transform="translate(581,373)" d="m0 0 4 1 24 14 23 15 16 10 2 4-3 1-21 2h-25l-62-2-16-1-3-1 1-3 16-11 15-10 20-13z" fill="#E3A379"/>
<path transform="translate(577,440)" d="m0 0h12l9 3 4 3v2l4 2 6 9 2 8-1 7-2 6h-2v5h-2l-1 4-1 2h-2v2l-7 5-9 3h-9l-12-6-7-7-4-8-1-5v-10l3-9 6-8 9-6z" fill="#D09070"/>
<path transform="translate(519,514)" d="m0 0h131l2 2v16l-2 2-31 1h-29l-70-1-3-5v-13z" fill="#E3DCC1"/>
<path transform="translate(1817,852)" d="m0 0 2 1-1 5-13 21-17 28-14 23-13 21-15 25-9 14-7 9-5 4-12 4h-7l-10-3-2-2v-4l8-8 7-2 1-3 3-1 2-3h2l1-4 5-6 1-2h2l2-4 3-3h2l2-5 5-5 3-5 2-1 2-4h2l2-4 3-4 2-4h2l2-5 9-13 3-6h2l2-5 8-7 6-8 6-2v-2l2-1 1-5h3l1-5 3-5 8-8z" fill="#BD8167"/>
<path transform="translate(291,810)" d="m0 0 3 3 10 27 11 28 13 30 7 20 10 25 2 7v17l-7 9-10 6-6 2h-8l-3-1v-2l7-3 3-8 3-3v-14l-4-8-3-20-2-7-2-16-4-11-2-6-4-13-5-11-1-7-1-5-1-7-2-10-3-8-3-13z" fill="#BE8268"/>
<path transform="translate(1647,623)" d="m0 0 1 2 9 3 4 4-4-1-4-2-2 2-2-1v2l-7 4-2 3h-2l-1 5h-2l-1 5-4 8-3 4-4 17-1 5-4 13-2 6-6 12-4 31-3 11-5 11-1 6-2 5-1 4-4-1-1 13-3 7-1 7v9l1 2h-2l2 11v3l3 3 1 6 8 6 5 2 12 1v1h-13l-10-5-5-4-6-10-2-8 1-12 7-34 5-25 9-43 10-48 5-21 4-7 11-8 5-2 9-1z" fill="#E2A379"/>
<path transform="translate(574,326)" d="m0 0 4 1 1 36-1 8-9 7-9 5-11 8-10 4-4 3-8 3-2-1-8 2-8 9 2 6v5h-1l1 8 3 4 9 3-2 2-9-1-5-7v-3l-6-2-3-2-1-4-2-2 3-5 8-8 1-2h2l2-6 5-8h2v-2h2l2-4 6-5 4-5v3l-5 7-5 5-2 4 5-5 9-10 1-2h2l2-4 8-8 4-6 12-14 8-12z" fill="#DFEBF8"/>
<path transform="translate(582,320)" d="m0 0h1l1 10 1 38 2 5 19 12-2 1-14-8-6-4-4 1-19 12-27 18-13 9-1 2 19 1 67 2h20l21-2h3l-5-5-9-6 2-1 14 9 2 2 1 8-3 5-2 1h-131l-4-4-1-4 1-7 9-7 21-14 20-13 13-8 1-3v-47z" fill="#E3DCC1"/>
<path transform="translate(1655,712)" d="m0 0h3l1 9-6 30-5 24-8 42-1 9h-2l-3 9h-3l-2 4-3 3h-2v2l-6 1-3-2v-15l2-9 3-15 4-7 3-10 4-10 2-6 3-6 1-11 5-10 1-8 3-9 4-5-1-4 4-5z" fill="#BD8167"/>
<path transform="translate(393,832)" d="m0 0 5 2 4 2v2l-2 1 3 11 6 12 5 2 9 1h10l14-4h7l3 1 10-5h5l-3 1 1 2h7l5 2 12-1 4 9v2l6 1 1-1v-9l1-3v-14l2-12h1v12l-2 27 4-1-4 4-2 5h-91l-4-1-4-9-12-36z" fill="#ECF6F9"/>
<path transform="translate(1536,424)" d="m0 0h1l2 8v8l-4 6-10 10-7 4-15 2-12 1-30 3-18 1-37-3h-30l-56 2-34 2h-7l-13-2-27-2-11-1-10-2-8-7-3-5 1-3 6 8 8 4 11 2h142l6-2-10-1v-1l15-1 36 1-3 1 1 3 14 1h12l8-1-1-3 4-1 33-1v2h23l8-2 7-5 3-5 3-1 1-3v-13z" fill="#EDF7FB"/>
<path transform="translate(655,802)" d="m0 0 1 2h2l2 27v4h10l-5 4-2-1-1 4v6l-2 5h-2l2 3v6h2v-2l3 1 2 9 2 7 1 5-4-1-4-6v-9l-3 1 1 1 1 13 1 4 2 3-3 3 3 2-19-1-17-2v-1h9l1-3h2v-4h-9v-6l5-10-2-5-2-1v-2l-4-2 4-2 6 2h4l4-4 9-1-1-3-6-5-3-3v-3h4v-2h-6l-2-1 2-4 3-4 5 2h3l1-5h2l1-2h-5l-2-4-6 1-5 1-1-3 5-6 8-2z" fill="#EDF7FB"/>
<path transform="translate(1490,334)" d="m0 0 4 2 3 2v2l4 2 16 16 7 8 13 15 9 10 4 4 5 8 7 10 5 8 9 15 5 8 6 9 9 14 4 10 1 5-2 7 2 9 3 6 2 15-3 10-4 2-2-2-2-14-4-10-6-9-1-7-3-5v-10l-2-7-1-8-4-9-6-18-6-9-7-14-9-10-6-8-13-14-10-13v-2h-2l-7-9-18-18z" fill="#EDF7FB"/>
<path transform="translate(593,663)" d="m0 0 8 1 11 7 5 10h-3l-1 2v12l-4 6-7 3-4 1h-7l-8-4-6-7-2-6v-8l3-8 7-6z" fill="#D09070"/>
<path transform="translate(1280,470)" d="m0 0h11l11 4h3v2l25 1 6 1v1l-10 1 13 1-4 2-10 2-9 2v3l-10 2-8 1-14-1-13-2-3-1-6 1-8-3-1-2 1-4-10 1-1 2 1-4 8-4 3-3 13-1 7-1z" fill="#EDF7FB"/>
<path transform="translate(592,757)" d="m0 0 8 2 8 8 4 9-1 9-6 8-6 5-5 2h-5l-6-4-7-8-1-3v-11l5-10 6-5z" fill="#D09070"/>
<path transform="translate(644,626)" d="m0 0h1l4 44 2 28-21 14-3 1 1-5-12-2-1-3-10 3-7 2-7-2v-1l15-3 4-3 2-4v-12l2-3h5l1 11 1 3 3-1 3-6 12-6 3-4 1-3v-7l-2-2v-9l3-7v-5h-13l1-3 11-5z" fill="#E9F0E0"/>
<path transform="translate(1016,156)" d="m0 0h25l-1 4-3 1h-9l-10-1-5 2-22 1h-18l-13 1-7 2-25 2-7 2-10 2-9 1-10 1-6 3h-8l-9 3-8 1-8 3h-6l-4 3-9 1-5 3-9 2-9 3-14 1v-2l24-8 29-8 38-9 39-7 24-3 37-3z" fill="#FAFBFC"/>
<path transform="translate(256,774)" d="m0 0h8l7 3-4 2-9-2-2-1v2l-6 3-5 5-3 7h-2l-1 9 4 9 3 9 3 8 3 9 2 9-1 2h2l3 6 2 6 3 7v8l3 4 4 12 3 7 3 11 1 7 3 3 1 6 2 3v4h-2l-1 2-10-27-17-43-16-42-4-13v-13l3-8 8-9 7-4z" fill="#E3A57C"/>
<path transform="translate(1638,826)" d="m0 0 10 4 8 1-3 9-9 19-8 16-9 21-9 24-4 10-9 25-5 15h-1v-7l3-12 2-13 7-18 4-12 6-14 6-12 4-6 3-7 1-3 3-3 3-7 2-1 1-4h-2l-2-2v-3l2-2h-6l-1 3h-3v2l-12 5-3-1 3-1 1-3 8-6 5-7z" fill="#ECF6FA"/>
<path transform="translate(1285,521)" d="m0 0 6 1 2 2 4-1 2 2h-2l1 2 5-2 10 2 16 4 10 1h9l12-1 20 1 6 1v1h-33l-35 2-23 2h-36l-4-1h-46l4-2 13-2 2-1v2l6-1h5l2-2 5 1 1 1h8l3-4 6-1 5-1 7 1 2-4h5z" fill="#EDF7FB"/>
<path transform="translate(639,504)" d="m0 0 5 3v2l6 1 3 4v18h-1l-1-16-1-1h-131l-1 1v13l2 4 80 1h50l1 2-3 4-7 1-11-2h-15l-10-1-60-1-28-1-2-2v-21l4-3 7-1 7 2h69l21-2 15-1z" fill="#E9F1E1"/>
<path transform="translate(380,830)" d="m0 0h2l-2 10-5 26-2 13-2 3-7 4-10 3-2 5-2 9h-1l-1-8-6 3-4-4-4-2-3 1v-20l3-9 2-5 3-16 1-3h2v-2l5-1-5 8-3 21-3 12-2 1v2l5-1 6-4 16-1 4-2 5-18 5-15 2-3-2-3 4-2z" fill="#EDF6FA"/>
<path transform="translate(529,558)" d="m0 0h57l54 2 2 2 1 14v11h-1l-3-24h-61l-48 1-3 36-3 44v14l5-1 14-6 36-12 16-5 3 1-32 11-15 6-23 11-4 2-5-1v-17h1v-9l2-2 4-59v-16z" fill="#E3DCC1"/>
<path transform="translate(580,436)" d="m0 0h9l10 3 12 10 5 8 3 9-1 17-5 9h-2v2h-2v2l-11 6-7 2h-12l-10-4-8-6-6-8v-6l2 3 6 8 6 5 9 4h9l10-4 4-3h2v-2h2l2-6 2-5 2-1 1-5 1-7-3-9-6-9-8-6-7-2h-12l-10 5-6 5-5 9-1 5h-1v-8l4-8 8-7 10-5z" fill="#E8F0E0"/>
<path transform="translate(1595,882)" d="m0 0h2l-1 10-6 38-6 56-2 30-1 9h-2v-14l-2-13-2-12v-6h2v-10l1-7v-10l4-7 2-9 2-16 3-19 4-10z" fill="#EAF5FA"/>
<path transform="translate(1691,834)" d="m0 0 6 3 21 3 6 4 2 3v11l-5 21h-2l-3 12-3 1 1-11 6-10-3-7-1-11-6 2v2l-6 1-7-6-2-5h-2l-1-4-2 2z" fill="#FBFBFC"/>
<path transform="translate(1536,833)" d="m0 0 11 2v1l-7 1 5 21 5 18 2 12 2 8 2 11 1 1 4 35 3 13 3 17 1 8v17l2 9 1 14 5 3 3 2h-9l-2-2-7-58-9-56-7-37-8-36z" fill="#ECF6FA"/>
<path transform="translate(577,326)" d="m0 0h2l1 13v31l-2 4-21 13-39 26-3 4v7l2 4 2 1h131l3-2 1-5-2-7-1-2 4 2 2 9-2 5-7 3-6 1v4h-3v2h-2v-2l-2-1-2-2-31-1h-76l-11-3-2-3v-12l8-7 15-10 10-7 9-5 11-8 9-5 2-2 1-9z" fill="#E9F1E1"/>
<path transform="translate(1777,819)" d="m0 0 3 4v7l-4 8-3 5-4 4h-2v6l-5 2v2h-2l-1 6-2 1-1 3-4 4-2 5h-3l-2 5-8 2 6-11 26-42z" fill="#E2A47A"/>
<path transform="translate(577,440)" d="m0 0h12l9 3 4 3v2l4 2 6 9 2 8-1 7-2 6h-2v5h-2l-1 4-1 2h-2v2l-7 5-9 3h-9l-12-6-7-7-4-8-1-5v-10h1l2 14 4 8 8 7 6 3 7 1 8-2 8-6 5-7 2-5v-13l-4-10-5-8-4-3-11-2h-7z" fill="#E3A379"/>
<path transform="translate(1515,825)" d="m0 0h1l-1 16-3 34-1 16v47l1 27 3 32 5 36v5l-2-4-6-29-2-27-1-6-1-38v-64l2-17 1-3 1-14z" fill="#EDF7FB"/>
<path transform="translate(329,992)" d="m0 0 5 5 6 14 9 32 9 28 15 55 3 12 1 5-2 3-7 2 2-4 2-1v-8l-4-16-12-42-16-49-11-32z" fill="#EAF1EC"/>
<path transform="translate(1718,913)" d="m0 0 1 2-2 13-6 8-7 10-1 2h-2l-3 9-3 7-3 3-3 11-2 2-1 8 2 4-1 4-5-13v-8l4-11 7-11 10-16 3-7z" fill="#E3A47A"/>
<path transform="translate(1597,850)" d="m0 0 5 1h13l5-1v2l-4 2h-10l-5 34-2 16-3 18-2 6-2 15-3 3 1-16v-8l5-30 3-21 2-13v-5z" fill="#E5EFE8"/>
<path transform="translate(651,723)" d="m0 0 2 2 4 60v10l-4 1 1-10-2-10-3-3v-3h-2l-1-5-1-8 1-5v-16l4-8z" fill="#D29270"/>
<path transform="translate(656,264)" d="m0 0 2 1v2h-3v3l-8 4-5 1-2 4-11 9-10 7-11 9-10 9-6 5-3 3h-3l1-4v-3l10-9 20-15 14-10 17-11z" fill="#FBFBFC"/>
<path transform="translate(1656,588)" d="m0 0h1l-1 9-7 28-2-1-2 1-12 2-9 6-4 2-2 5-4 13-4 20-5 23h-1l1-15 7-36 5-12 5-4 6-4 6-2 12-2 2-13 4-9 3-9z" fill="#E9F1E1"/>
<path transform="translate(541,393)" d="m0 0 2 1-10 7-17 12-2 2v12l3 3 13 3-3 15-2-2 2-8-13-3-4-5-1-9 1-4-2-6 9-10 9-2 2 1 10-5z" fill="#ECF6FA"/>
<path transform="translate(1705,919)" d="m0 0h3l-1 6-4 10 1 2-12 19-6 10-3 9v8l1 6-3-1-1-3v-10l2-11 4-7v-6l3-3 6-10 5-12zm-4 17 1 2z" fill="#EAF0EA"/>
<path transform="translate(529,558)" d="m0 0h57l54 2 2 2 1 14v11h-1l-3-26-110 1-2 4h-1l1-7z" fill="#E8EFDF"/>
<path transform="translate(1692,841)" d="m0 0 10 4 19 2 1 16-1 8-3-3-2-15-6 2v2l-6 1-7-6-2-5h-2z" fill="#EDF7FB"/>
<path transform="translate(784,489)" d="m0 0h25l5 2-3 3-5 1-27 1-7 1h-29v-1l8-1 12-1 11-4z" fill="#FCFCFD"/>
<path transform="translate(1480,454)" d="m0 0h9l-3 2-29 1-3 1v2l-8 2h-12l-14-1-1-4-33-1v-1z" fill="#FCFCFD"/>
<path transform="translate(577,439)" d="m0 0h13l11 4 8 7 5 8 2 7v12l-4 9-6 8-7 5-5 2-6 1h-10v-1l12-2 9-4 4-2v-2h2l2-6 2-5 2-1 1-5 1-7-3-9-6-9-8-6-7-2-12-1z" fill="#E3DCC1"/>
<path transform="translate(1594,923)" d="m0 0 2 3-1 4v10l-3 27v8l1 3h-2v9h3l-1 7-4 12-2 2v-14l2-34z" fill="#EDF7FB"/>
<path transform="translate(525,452)" d="m0 0h2v43l-1 14-10 4v21 4l-7-3-1-2 1-2h3v-15l3-9 6-3 3-8 1-14z" fill="#EDF7FB"/>
<path transform="translate(595,634)" d="m0 0 3 1-32 11-15 6-23 11-4 2-5-1v-17h1v-9l2-1v24l6-2 11-5h2v-2l34-12z" fill="#E8EFDE"/>
<path transform="translate(329,992)" d="m0 0 5 5 6 14 9 32 1 8-1 3-15-43-5-15z" fill="#DEEADE"/>
<path transform="translate(492,413)" d="m0 0v3l-6 11-7 10-4 7-8 11-4 8-7 11-6 17h2l-1 3h-3v-8l4-8 3-7 5-11h2l2-6 9-13 6-10 7-8 3-7z" fill="#EDF7FB"/>
<path transform="translate(655,802)" d="m0 0 1 2h2l1 9v9l-7-2-1-3-6 1-5 1-1-3 5-6 8-2z" fill="#E9F1E1"/>
<path transform="translate(593,663)" d="m0 0 8 1 11 7 5 10h-3l-1 2v12l-4 6-7 3-4-1 5-3 6-9v-12l-4-8-6-5-6-2z" fill="#E3A379"/>
<path transform="translate(1693,1011)" d="m0 0 1 3-8 16-14 24-13 24-4 8h-2l2-6 16-30 12-22 7-14z" fill="#E6EADB"/>
<path transform="translate(1641,1022)" d="m0 0h1l-1 7-8 23v7l3 6v2l4 1 3 3 4 2-2 5-3 7h-2l-2-10-6-12-2-5 1-8 6-19h2z" fill="#E4EEEB"/>
<path transform="translate(704,375)" d="m0 0 2 3 4 5 9 2 7-1v-1h15l16 1v5h-7l-10-2-9 1-5 1-2-1-4 1-10-3-6-7z" fill="#DFEBF8"/>
<path transform="translate(525,754)" d="m0 0 4 1-11 7-3 1-4 54-1 16h-1v-25l3-44h2l1-4z" fill="#E6E7D2"/>
<path transform="translate(1597,889)" d="m0 0h1l-1 13-2 21-3 20-3 3 1-16v-8l2-12h2l1-10z" fill="#D3E6D8"/>
<path transform="translate(1236,491)" d="m0 0 5 2 1 2h13l1 4v4l3-2h4l1 3-13 1v-4l-6-1 1 4 3 1-5 1-2-3-1-5-5-5z" fill="#EDF7FB"/>
<path transform="translate(636,487)" d="m0 0 5 5v10h-2v2l-5-1-4-3v-7l3-4z" fill="#E9F1E1"/>
<path transform="translate(1582,799)" d="m0 0h1l-1 8-2 12 1 11 5 10 5 5 6 4v1l-8-1-5-4-3-6-3-3v-21l3-15z" fill="#E7EADA"/>
<path transform="translate(525,582)" d="m0 0h1l-1 24-2 30h-1l-1-10v-20l1-10 1-1v-8z" fill="#EBF4EF"/>
<path transform="translate(1640,828)" d="m0 0 5 1 11 2-2 5-9 3-4-1-3-4z" fill="#FCFCFD"/>
<path transform="translate(1831,780)" d="m0 0 1 2-12 23-5 6h-2l2-9 12-17z" fill="#E4EEDF"/>
<path transform="translate(1630,626)" d="m0 0 3 1-9 6-4 2-2 5-4 13-4 20-5 23h-1l1-15 1-5h2l1-10 5-23 5-9z" fill="#E3DFC6"/>
<path transform="translate(364,1099)" d="m0 0 2 1 8 31 3 9-1 5-8 3 2-4 2-1v-8l-4-16-4-15z" fill="#D1DED3"/>
<path transform="translate(1603,696)" d="m0 0h1l-1 11-9 42-2 11h-1v-10l2-11h2v-13l3-12h2l1-8z" fill="#E5E3CC"/>
<path transform="translate(334,918)" d="m0 0 3 4 9 24 1 4v17l-5 7-1-3 2-8h2v-8l-4-16-7-18z" fill="#E3A379"/>
<path transform="translate(1658,576)" d="m0 0 3 1-3 12-3 2-3 10-2 2 1-13 5-13z" fill="#EBF5FA"/>
<path transform="translate(634,470)" d="m0 0 3 1 1 4v9h-3l-1 4-3-5-2-3 1-6z" fill="#E9F1E1"/>
<path transform="translate(1597,850)" d="m0 0 5 1h13l5-1v2l-4 2h-10l-2 14-2 1-2 3v-19z" fill="#E4E8E0"/>
<path transform="translate(329,992)" d="m0 0 5 5 6 14 1 6-3-1v-2h-3l-6-18z" fill="#DAEADE"/>
<path transform="translate(1566,995)" d="m0 0 2 3 2 9 1 14 5 3 3 2h-9l-2-2-3-28z" fill="#EBF5FA"/>
<path transform="translate(1656,588)" d="m0 0h1l-1 9-5 19-4 3 1-11 4-9 3-9z" fill="#E1EDF1"/>
<path transform="translate(585,316)" d="m0 0 3 1-2 5v42l3 9 3 3-5-2-2-2-1-4-1-50z" fill="#E9F1E1"/>
<path transform="translate(1594,923)" d="m0 0 2 3-1 4v10l-2 19-2 4-1 7h-1v-10z" fill="#E4EFF9"/>
<path transform="translate(280,1276)" d="m0 0 2 1-2 4 3 1v2l38 1v1l-44 1-1-4z" fill="#E6EFE0"/>
<path transform="translate(159 1e3)" d="m0 0h20l-3 3-5 3-9-1-4-2z" fill="#F8FAFC"/>
<path transform="translate(1150,1278)" d="m0 0h8l-1 2-1 1v3h-24l1-2 9-1 2 1v-2z" fill="#A0CDC3"/>
<path transform="translate(235,737)" d="m0 0 3 4 10 23 2 11-3-4-6-14-6-17z" fill="#E1EADA"/>
<path transform="translate(1637,1067)" d="m0 0 4 2 6 4-2 5-3 7h-2z" fill="#E9F3FA"/>
<path transform="translate(613,680)" d="m0 0h5v10l-6 10-2-1 2-4v-12z" fill="#E3DCC1"/>
<path transform="translate(680,536)" d="m0 0 5 1 4 4v2l5-1h8v4l-6 1-2-2-10-1-5-4z" fill="#EDF7FB"/>
<path transform="translate(1095,537)" d="m0 0h11l23 2 22 4v1h-9l-3-1-28-3-16-2z" fill="#EDF7FB"/>
<path transform="translate(570,440)" d="m0 0 4 2-10 6-6 8-3 9h-1v-8l4-8 8-7z" fill="#E6E9D5"/>
<path transform="translate(555,480)" d="m0 0 2 3 6 8 6 5 9 4-2 2-6-1-9-7-6-8z" fill="#E7EAD6"/>
<path transform="translate(1693,1011)" d="m0 0 1 3-8 16-4 5-1-3 8-16z" fill="#DBEADB"/>
<path transform="translate(525,754)" d="m0 0 4 1-11 7-3 1-2 25h-1v-24h2l1-4z" fill="#E4E2CA"/>
<path transform="translate(595,634)" d="m0 0 3 1-32 11-8 3h-3v-2l30-10z" fill="#E6E8D4"/>
<path transform="translate(1791,810)" d="m0 0h14l8 3 2 3-4 1-3-1-1-3h-11l-8 2v-2l-2-1z" fill="#E3A67C"/>
<path transform="translate(1647 1e3)" d="m0 0h2l-1 7-4 13-3 5-2 6-1-4 8-26z" fill="#E7F0E9"/>
<path transform="translate(462,515)" d="m0 0 6 12 3 17-3-2-6-20z" fill="#EDF7FB"/>
<path transform="translate(642,443)" d="m0 0h1l1 13-1 15-2 1-1-9v-12z" fill="#FCFCFD"/>
<path transform="translate(1307,1107)" d="m0 0h1v9l-3 1-9-3v-3l9-2z" fill="#ECF6F9"/>
<path transform="translate(1680 1e3)" d="m0 0h2l-2 9-3 5-1 4h-2v-8l3-8z" fill="#EDF7FB"/>
<path transform="translate(1582,986)" d="m0 0h1v18l-2 21h-2v-11l1-4z" fill="#E3EEF2"/>
<path transform="translate(1721,871)" d="m0 0 1 4-4 8-2 8-3 1 1-11 5-9z" fill="#EEF7FA"/>
<path transform="translate(1090,529)" d="m0 0 14 1 19 3v1h-16l-17-4z" fill="#EDF7FB"/>
<path transform="translate(281,934)" d="m0 0 5 2 1 9h2l2 10v3l-2-1-8-21z" fill="#E3A87F"/>
<path transform="translate(591,662)" d="m0 0h10l11 6 4 5 1 7-3-4-3-5-10-6-8-1-3-1z" fill="#E5E3CB"/>
<path transform="translate(688,245)" d="m0 0 3 1-3 1v2l-6 4-11 4-1-2z" fill="#FBFBFC"/>
<path transform="translate(1589,765)" d="m0 0h1l-1 11-4 18h-1v-11l3-14h2z" fill="#E5E4CE"/>
<path transform="translate(640,547)" d="m0 0h5l1 3-3 5-4 1-2-3 2-5z" fill="#E9F1E4"/>
<path transform="translate(846,347)" d="m0 0 7 3 3 7-6-1-4-4-1-4z" fill="#FCFCFD"/>
<path transform="translate(1638,826)" d="m0 0 3 1-3 9-3 3-7 8-4 3-3-1 8-6 5-7z" fill="#E6E9D4"/>
<path transform="translate(372,1131)" d="m0 0h2l3 9-1 5-8 3 2-4 2-1z" fill="#E6F0E4"/>
<path transform="translate(336,1014)" d="m0 0h2l4 4 1 8-1 5-2-3-4-11z" fill="#B8D9CE"/>
<path transform="translate(1599,888)" d="m0 0h1v10l-2 10-2 14h-1l1-20 1-6h2z" fill="#E1ECF2"/>
<path transform="translate(656,264)" d="m0 0 2 1v2h-3v3l-8 4-5 1 4-5z" fill="#FCFCFD"/>
<path transform="translate(1630,626)" d="m0 0 3 1-9 6-4 2-2 5-4 11-1-4 4-10 4-5z" fill="#E3DCC1"/>
<path transform="translate(1591,962)" d="m0 0 1 4v9l1 3h-2v2l-3 1v-9l2-9z" fill="#EAF5FA"/>
<path transform="translate(1649,617)" d="m0 0 1 3-1 5-2-1-2 1-12 1 1-3 12-2z" fill="#E3E6D2"/>
<path transform="translate(609,700)" d="m0 0 2 1-3 4-8 3-9-2v-1l15-3z" fill="#E7EBD8"/>
<path transform="translate(1487,557)" d="m0 0h6l1 1v6l-9-1 1-4z" fill="#EDF7FB"/>
<path transform="translate(337,1184)" d="m0 0h1l1 6-3 10-3-1 2-10z" fill="#E7F0E0"/>
<path transform="translate(358,1081)" d="m0 0 3 1 4 14-1 5-2-4-4-13z" fill="#E9F2EC"/>
<path transform="translate(1656,588)" d="m0 0h1l-1 9-2 9-2 1-1-6 3-10z" fill="#E8F0E4"/>
<path transform="translate(1602,853)" d="m0 0h2l-1 15-3 4v-14h2z" fill="#D0E4DB"/>
<path transform="translate(1660,698)" d="m0 0 2 2-1 8-4 1-1-1v-5z" fill="#BE8268"/>
<path transform="translate(652,871)" d="m0 0 3 1 4 5-2 4-2 1-3-3z" fill="#FCFCFD"/>
<path transform="translate(525,582)" d="m0 0h1l-1 24h-1l-1-11v-8z" fill="#EAF3E9"/>
<path transform="translate(1296,495)" d="m0 0 7 1v4l-6 1-2-1z" fill="#EDF7FB"/>
<path transform="translate(425,1114)" d="m0 0h5v6l-4 4h-1z" fill="#FCFCFD"/>
<path transform="translate(336 1e3)" d="m0 0 2 2 3 9v2l-3-1v-2h-3l-1-4z" fill="#EAF2E8"/>
<path transform="translate(256,774)" d="m0 0h8l7 3-4 2-9-2-2-1z" fill="#E3A880"/>
<path transform="translate(1262,492)" d="m0 0 4 1 4 3-5 3-5-1z" fill="#EDF7FB"/>
<path transform="translate(354,1066)" d="m0 0h2l4 12v3l-3-1-3-10z" fill="#DEE8DF"/>
<path transform="translate(594,500)" d="m0 0m-18 1h18v2l-3 1h-12l-3-1z" fill="#E9F1E1"/>
<path transform="translate(346,960)" d="m0 0h1v7l-5 7-1-3 2-8h2z" fill="#DCA17C"/>
<path transform="translate(1536,833)" d="m0 0 11 2v1l-7 1 2 9h-3z" fill="#EDF7FB"/>
<path transform="translate(1568,1016)" d="m0 0 2 1 2 5 7 3v1h-9l-2-2z" fill="#E5F0F9"/>
<path transform="translate(283,795)" d="m0 0h2v2l3 1 3 7-1 3-5-6z" fill="#C08368"/>
<path transform="translate(585,316)" d="m0 0 3 1-2 5-1 9-2-1v-12z" fill="#EAF3F2"/>
<path transform="translate(343,992)" d="m0 0 3 1 4 11-4-2-3-6z" fill="#FCFCFD"/>
<path transform="translate(346,1038)" d="m0 0 2 2 2 8v6l-2-2-3-9z" fill="#E2E9DE"/>
<path transform="translate(235,737)" d="m0 0 3 4 5 11-2 4-6-16z" fill="#F0F5F0"/>
<path transform="translate(703,539)" d="m0 0 11 2 3 3-5-1-4 1-5-2z" fill="#EDF7FB"/>
<path transform="translate(1484,387)" d="m0 0 4 4 9 2v1l-11 1-2-4z" fill="#DFEBF8"/>
<path transform="translate(555,480)" d="m0 0 2 3 9 12-4-2-5-4-2-3z" fill="#E5E4CD"/>
<path transform="translate(1315,1084)" d="m0 0 1 4-2 6h-2l-1 3-6-3v-1l8-1z" fill="#EBF4F1"/>
<path transform="translate(1638,1072)" d="m0 0 4 4 1 8-3 1z" fill="#E9F1E1"/>
<path transform="translate(1641,1022)" d="m0 0h1l-1 7-4 12h-1v-7l1-3h2z" fill="#E6F1F4"/>
<path transform="translate(1680,975)" d="m0 0h2l2 14-3-1-1-3z" fill="#E7E8D8"/>
<path transform="translate(525,754)" d="m0 0 4 1-10 6-5 1 4-4z" fill="#E6E9D5"/>
<path transform="translate(1269,479)" d="m0 0h2l-2 7-5-2-2-2 7-1z" fill="#FCFCFD"/>
<path transform="translate(1685,1025)" d="m0 0h2l-1 5-4 5-1-3z" fill="#E0EDE1"/>
<path transform="translate(347,950)" d="m0 0 2 4 1 8h-2l-1 3z" fill="#E3DCC1"/>
<path transform="translate(1306,1110)" d="m0 0 2 4-1 3-8-2 4-3h2z" fill="#E9F1E4"/>
<path transform="translate(1635,1037)" d="m0 0h1v7l-4 9-1-3z" fill="#E6F0E9"/>
<path transform="translate(1681,1034)" d="m0 0 1 3-6 9-1-3 5-8z" fill="#DAD0BE"/>
<path transform="translate(1647 1e3)" d="m0 0h2l-1 7h-2v3h-2l2-9z" fill="#E9F1E7"/>
<path transform="translate(655,884)" d="m0 0h2l1 4-3 1v2h-4v-2h2v-4z" fill="#FCFCFD"/>
<path transform="translate(559,451)" d="m0 0v3l-3 6-1 5h-1v-8l3-5z" fill="#E5E5CF"/>
<path transform="translate(1036,156)" d="m0 0h5l-1 4-3 1-2-1v-2l-3-1z" fill="#F7FAFC"/>
<path transform="translate(1665,574)" d="m0 0" fill="#FCFCFD"/>
<path transform="translate(234,736)" d="m0 0" fill="#FCFCFD"/>
</svg>
